<svg xmlns="http://www.w3.org/2000/svg" version="1.1" xmlns:xlink="http://www.w3.org/1999/xlink" xmlns:svgjs="http://svgjs.dev/svgjs" viewBox="0 0 1920 1080" class="overflow-hidden rounded-md drop-shadow-lg transition duration-300" style="overflow: hidden; height: 85vh;"><rect width="1920" height="1080" fill="#0078a4"/><g clip-path="url(&quot;#SvgjsClipPath1904&quot;)"><g transform="matrix(1.0997504693574907,0.33622746043114726,-0.33622746043114726,1.0997504693574907,85.86009718398725,-376.44906241783565)"><path d="M0,-1080C2.514485568047713,-1012.1131441931649,15.154515332518038,-839.2923433836313,15.086913408286279,-672.6788651589892C15.01931148405452,-506.06538693434703,-5.264512876566845,-240.94979907644853,-0.4056115453905562,-80.31913065214704C4.453289785785732,80.31153777215445,36.22129564817685,135.43397625257515,44.24032139534401,291.1051453868198C52.259347142511174,446.7763145210645,43.69392403947622,711.4879081219909,47.708542937612435,853.707884153321C51.72316183574865,995.927860184651,60.237779598891315,988.3084610203127,68.3280347841613,1144.4250015747998C76.4182899694313,1300.5415421292869,107.6380798465926,1621.1446277427099,96.25007404923238,1790.4071274802432C84.86206825187216,1959.6696272177765,16.041679008205396,2098.401187913374,0,2160L 1920 2160 L 1920 -1080 Z" fill="url(&quot;#SvgjsLinearGradient1892&quot;)"/><path d="M160,-1080C172.8052644058148,-985.3734421425596,223.26883932186772,-665.1857789432578,236.8315864348888,-512.2406528553579C250.3943335479099,-359.295526767458,261.12529987709866,-293.4399939358649,241.3764826781265,-162.32924347260072C221.62766547915433,-31.218493009336584,135.8151220883051,110.26565945552207,118.33868324105575,274.42384992422694C100.86224439380639,438.58204039293184,119.97462827205386,648.425253811413,136.51784959463038,822.6198993396285C153.0610709172069,996.8145448678441,216.4957512096548,1172.2701243622341,217.59801117651483,1319.5917230935206C218.70027114337486,1466.913321824807,152.73107792520977,1566.4814455762682,143.13140939579063,1706.5494917273481C133.53174086637148,1846.617537878428,157.18856823263178,2084.4249152878915,160,2160L 1920 2160 L 1920 -1080 Z" fill="url(&quot;#SvgjsLinearGradient1893&quot;)"/><path d="M320,-1080C305.8864024222539,-997.8193150769976,221.8949768477793,-749.3983397280505,235.31841453352342,-586.9158904619853C248.74185221926754,-424.4334411959202,396.9081080108963,-311.25648220005576,400.54062611446477,-105.1053044036089C404.17314421803326,101.04587339283799,272.22298799532,462.23432576012067,257.11352315493417,649.991176316696C242.00405831454836,837.7480268732714,304.0242647328792,850.3578263790347,309.88383707214984,1021.4357989358432C315.7434094114205,1192.5137714926518,290.58493003591633,1486.6983114801878,292.270957190558,1676.4590116575473C293.9569843451997,1866.2197118349068,315.378492865093,2079.409835276258,320,2160L 1920 2160 L 1920 -1080 Z" fill="url(&quot;#SvgjsLinearGradient1894&quot;)"/><path d="M480,-1080C496.0406114960086,-994.0444790038003,572.8461781469032,-715.5939004962598,576.2436689760514,-564.2668740228022C579.6411598051995,-412.93984754934456,524.0512489501172,-308.1538903217554,500.38494497488944,-172.0378411592544C476.7186409996617,-35.9217919967534,420.6814252632061,90.7855367248691,434.24584512468516,252.42942095220388C447.8102649861642,414.0733051795387,576.7115823216627,640.1996241067991,581.7714641437639,797.8254642047543C586.831345965865,955.4513043027096,471.5436153096248,1043.9682419217188,464.60513605729204,1198.1844615399355C457.6666568049593,1352.400681158152,537.5747779726496,1562.8201921707105,540.1405886297675,1723.1227819140545C542.7063992868855,1883.4253716573985,490.0234314382946,2087.187130319009,480,2160L 1920 2160 L 1920 -1080 Z" fill="url(&quot;#SvgjsLinearGradient1895&quot;)"/><path d="M640,-1080C635.0936191652352,-994.3136453914842,601.7431496623121,-716.9233086269044,610.5617149914107,-565.8818723489055C619.3802803205092,-414.84043607090666,691.573455734766,-336.8530901405205,692.9113919745912,-173.75138233200715C694.2493282144164,-10.649674523493758,640.0439265753683,243.86908266991517,618.5893324303624,412.7283745021749C597.1347382853565,581.5876663344346,552.0592237136178,693.2372822509656,564.1838271045558,839.4043686615514C576.3084304954938,985.5714550721373,697.4110521596814,1146.2420445983953,691.3369527759903,1289.7308929656901C685.2628533922992,1433.219741332985,536.2953895984077,1555.2926076929355,527.7392308024093,1700.3374588653205C519.183072006411,1845.3823100377056,621.2898718004016,2083.3895764775534,640,2160L 1920 2160 L 1920 -1080 Z" fill="url(&quot;#SvgjsLinearGradient1896&quot;)"/><path d="M800,-1080C785.9051247670775,-992.083915238529,729.2488789842499,-731.5230653946007,715.4307486024646,-552.5034914311744C701.6126182206793,-373.48391746774814,721.2729752443639,-195.3339272141073,717.0912177092882,-5.882556219442179C712.9094601742125,183.5688147752229,674.9784224584664,405.7919885388628,690.3402033920105,584.204734536816C705.7019843255546,762.6174805347691,788.8009751515069,877.5194595123944,809.2619033105531,1064.593919768277C829.7228314695992,1251.6683800241594,814.6494228980459,1524.0838160334908,813.105772346287,1706.6514960721113C811.5621217945281,1889.2191761107317,802.1842953910478,2084.4419160120187,800,2160L 1920 2160 L 1920 -1080 Z" fill="url(&quot;#SvgjsLinearGradient1897&quot;)"/><path d="M960,-1080C951.0333863779786,-967.9270107280421,903.2633128481548,-631.2576922738829,906.2003182678716,-407.56206436825266C909.1373236875884,-183.86643646262243,966.5645752389277,60.07917371593908,977.6220325183006,262.17376743378156C988.6794897976735,464.26836115162405,974.1709167224889,608.2556745758061,972.545061944109,805.0054979388023C970.9192071657291,1001.7553213017984,969.9577475053726,1216.840290601559,967.8669038480211,1442.6727076117586C965.7760601906697,1668.5051246219582,961.3111506413369,2040.4454512686264,960,2160L 1920 2160 L 1920 -1080 Z" fill="url(&quot;#SvgjsLinearGradient1898&quot;)"/><path d="M1120,-1080C1103.0607836699232,-1022.7045579714752,1004.237649871502,-867.5629352683575,1018.3647020195389,-736.2273478288515C1032.491754167576,-604.8917603893456,1177.130711278937,-456.05720635299167,1204.7623128882215,-291.9864753629645C1232.3939144975059,-127.9157443729373,1202.662837045164,116.17659977949958,1184.1543116752455,248.1970381113116C1165.645786305327,380.2174764431236,1102.5587282999777,368.4662008457327,1093.71116066871,500.1361546279076C1084.8635930374421,631.8061084100825,1137.100099432536,889.243058179647,1131.0689058876383,1038.2167608043612C1125.0377123427406,1187.1904634290754,1050.3561031705917,1292.7567672524872,1057.5239993993234,1393.9783703761925C1064.6918956280551,1495.1999734998979,1163.6636164932497,1517.8761079426258,1174.0762832600292,1645.5463795465937C1184.4889500268087,1773.2166511505616,1129.0127138766716,2074.257729924432,1120,2160L 1920 2160 L 1920 -1080 Z" fill="url(&quot;#SvgjsLinearGradient1899&quot;)"/><path d="M1280,-1080C1265.1130149344815,-1009.3402307188575,1176.8299300824435,-812.4331690056687,1190.6780896068888,-656.0413843131448C1204.526249131334,-499.64959962062096,1347.7636365309731,-309.1756678279892,1363.0889571466714,-141.64929184485675C1378.4142777623697,25.877084138275706,1297.173754680024,185.1118393010731,1282.6300133010786,349.11687158564996C1268.0862719221332,513.1219038702268,1260.7167168082065,706.6836437871759,1275.826508872998,842.3809018626044C1290.9363009377894,978.078159938033,1387.7486183650517,1037.4931520076193,1373.288765689828,1163.3004200382209C1358.8289130146045,1289.1076880688224,1204.6155204366273,1431.1079133859175,1189.067392821656,1597.2245100462142C1173.5192652066848,1763.3411067065108,1264.844565470276,2066.2040850077024,1280,2160L 1920 2160 L 1920 -1080 Z" fill="url(&quot;#SvgjsLinearGradient1900&quot;)"/><path d="M1440,-1080C1423.5110376748623,-1001.0694638665076,1357.3078309559792,-742.6022077402661,1341.066226049174,-606.4167831990454C1324.8246211423689,-470.23135865782484,1341.503084790816,-423.6362975620399,1342.5503705591686,-262.8874527526765C1343.5976563275212,-102.13860794331308,1316.6041906338205,177.00309143668494,1347.34994065929,358.07628565713514C1378.0956906847596,539.1494798775853,1496.035866797408,680.7610957268291,1527.0248707119858,823.5517125700246C1558.0138746265636,966.3423294132201,1547.8265686169914,1086.7223058267855,1533.2839641467567,1214.8199867163078C1518.741359676522,1342.91766760583,1455.3165712483706,1434.6077956932104,1439.7692438905779,1592.137797907159C1424.2219165327851,1749.6678001211076,1439.9615406484297,2065.3562996511932,1440,2160L 1920 2160 L 1920 -1080 Z" fill="url(&quot;#SvgjsLinearGradient1901&quot;)"/><path d="M1600,-1080C1591.8950285829155,-991.9106007879714,1536.764387241322,-723.759469118914,1551.370171497493,-551.4636047278279C1565.9759557536638,-379.1677403367419,1669.7682205887497,-208.25037165774717,1687.6347055370256,-46.22481365348375C1705.5011904853015,115.80074435077967,1676.6334558847846,283.9913619475359,1658.5690811871489,420.68974329775256C1640.5047064895132,557.3881246479692,1585.814603189841,625.4313962783564,1579.2484573512115,773.9654744478163C1572.6823115125821,922.4995526172762,1624.4260288847981,1159.597968175252,1619.1722061553733,1311.8942123145123C1613.9183834259484,1464.1904564537726,1550.9208886672238,1546.3919746691304,1547.7255209746615,1687.7429392833783C1544.5301532820993,1829.0939038976262,1591.2875868291103,2081.290489880563,1600,2160L 1920 2160 L 1920 -1080 Z" fill="url(&quot;#SvgjsLinearGradient1902&quot;)"/><path d="M1760,-1080C1754.1080828344323,-1000.124007367945,1738.6300387572294,-772.8334625339928,1724.6484970065937,-600.74404420767C1710.666955255958,-428.6546258813471,1663.668042482303,-185.86888810438526,1676.1107494961857,-47.46349004206314C1688.5534565100684,90.94190802025898,1780.2771324453017,106.9735240658346,1799.3047390898905,229.68834416626285C1818.3323457344793,352.4031642666911,1794.5990762849228,515.3851428208657,1790.2763893637186,688.8254305605063C1785.9537024425144,862.265718300147,1787.8146456670152,1105.2737866545726,1773.3686175626656,1270.3300706041066C1758.922589458316,1435.3863545536406,1705.828323664732,1530.8848126917273,1703.600220737621,1679.1631342577095C1701.37211781051,1827.4414558236917,1750.6000367896036,2079.8605223762847,1760,2160L 1920 2160 L 1920 -1080 Z" fill="url(&quot;#SvgjsLinearGradient1903&quot;)"/></g></g><defs><linearGradient x1="0.1" y1="0" x2="0" y2="1" id="SvgjsLinearGradient1892"><stop stop-color="#0078a4" offset="0"/><stop stop-color="#0093a4" offset="0"/></linearGradient><linearGradient x1="0.1" y1="0" x2="0" y2="1" id="SvgjsLinearGradient1893"><stop stop-color="#006d95" offset="0"/><stop stop-color="#008695" offset="0.08333333333333333"/></linearGradient><linearGradient x1="0.1" y1="0" x2="0" y2="1" id="SvgjsLinearGradient1894"><stop stop-color="#006286" offset="0"/><stop stop-color="#007886" offset="0.16666666666666666"/></linearGradient><linearGradient x1="0.1" y1="0" x2="0" y2="1" id="SvgjsLinearGradient1895"><stop stop-color="#005777" offset="0"/><stop stop-color="#006b77" offset="0.25"/></linearGradient><linearGradient x1="0.1" y1="0" x2="0" y2="1" id="SvgjsLinearGradient1896"><stop stop-color="#004c69" offset="0"/><stop stop-color="#005d69" offset="0.3333333333333333"/></linearGradient><linearGradient x1="0.1" y1="0" x2="0" y2="1" id="SvgjsLinearGradient1897"><stop stop-color="#00425a" offset="0"/><stop stop-color="#00515a" offset="0.4166666666666667"/></linearGradient><linearGradient x1="0.1" y1="0" x2="0" y2="1" id="SvgjsLinearGradient1898"><stop stop-color="#00374b" offset="0"/><stop stop-color="#00434b" offset="0.5"/></linearGradient><linearGradient x1="0.1" y1="0" x2="0" y2="1" id="SvgjsLinearGradient1899"><stop stop-color="#002c3c" offset="0"/><stop stop-color="#00363c" offset="0.5833333333333334"/></linearGradient><linearGradient x1="0.1" y1="0" x2="0" y2="1" id="SvgjsLinearGradient1900"><stop stop-color="#00212d" offset="0"/><stop stop-color="#00282d" offset="0.6666666666666666"/></linearGradient><linearGradient x1="0.1" y1="0" x2="0" y2="1" id="SvgjsLinearGradient1901"><stop stop-color="#00161e" offset="0"/><stop stop-color="#001b1e" offset="0.75"/></linearGradient><linearGradient x1="0.1" y1="0" x2="0" y2="1" id="SvgjsLinearGradient1902"><stop stop-color="#000b0f" offset="0"/><stop stop-color="#000d0f" offset="0.8333333333333334"/></linearGradient><linearGradient x1="0.1" y1="0" x2="0" y2="1" id="SvgjsLinearGradient1903"><stop stop-color="#000001" offset="0"/><stop stop-color="#000001" offset="0.9166666666666666"/></linearGradient><clipPath id="SvgjsClipPath1904"><rect width="1920" height="1080"/></clipPath></defs></svg>